<svg xmlns="http://www.w3.org/2000/svg" viewBox="0 0 256 256" role="img" aria-labelledby="title desc">
  <title id="title">IJLES emblem</title>
  <desc id="desc">A refined academic monogram with an open book, globe arc, and the letters IJLES.</desc>
  <defs>
    <linearGradient id="ink" x1="52" y1="40" x2="204" y2="216" gradientUnits="userSpaceOnUse">
      <stop offset="0" stop-color="#0b2d45"/>
      <stop offset=".72" stop-color="#236d73"/>
      <stop offset="1" stop-color="#b57a28"/>
    </linearGradient>
  </defs>
  <circle cx="128" cy="128" r="106" fill="#fbfaf7" stroke="#0b2d45" stroke-width="6"/>
  <circle cx="128" cy="128" r="82" fill="none" stroke="#d7c7a8" stroke-width="2"/>
  <path d="M70 92c21-8 40-4 58 12 18-16 37-20 58-12v70c-21-8-40-4-58 12-18-16-37-20-58-12V92Z" fill="#fff" stroke="#0b2d45" stroke-width="5" stroke-linejoin="round"/>
  <path d="M128 104v70" stroke="#0b2d45" stroke-width="5" stroke-linecap="round"/>
  <path d="M82 114c12-3 22-1 32 6M82 134c12-3 22-1 32 6M142 120c10-7 20-9 32-6M142 140c10-7 20-9 32-6" fill="none" stroke="#236d73" stroke-width="4" stroke-linecap="round"/>
  <path d="M74 72c30-23 78-23 108 0M74 184c30 23 78 23 108 0" fill="none" stroke="#b57a28" stroke-width="4" stroke-linecap="round"/>
  <text x="128" y="64" text-anchor="middle" font-family="Georgia, 'Times New Roman', serif" font-size="29" font-weight="700" letter-spacing="2" fill="url(#ink)">IJLES</text>
</svg>
